<svg version="1.0" xmlns="http://www.w3.org/2000/svg" width="933.333" height="933.333" viewBox="0 0 700 700"><path d="M173.7 3.6c-.1.1-23.3.5-51.6.8-79.4 1-99.7 1.8-104 4-3 1.6-8.3 7.1-10 10.3-3.3 6.4-4.5 97-4.5 332.3 0 242.5 1.2 324 4.8 330.8 1.7 3.2 5.8 7.7 8.9 9.6 5.4 3.5 34.4 4.7 112.7 4.6 60.3 0 65.9-.3 67.8-3.5.4-.8-1.3-9.7-4-20.7-2.6-10.6-5-20-5.1-20.8-1.2-5.2-2-7.7-2.7-9.5-.5-1.1-1.1-3.3-1.5-5-.9-4-9-26.4-12.2-33.4-7.5-16.8-13.7-28.5-23.8-44.6-14.4-23.1-23.7-46.1-28.1-69.5-1.3-7.3-1.2-33.4.1-41.3 6.7-37.6 28.8-68.9 66.9-94.6 5.5-3.7 32.5-20.7 44.6-28.1 8.2-4.9 40.2-24.2 42.7-25.6 1.8-1.1 10.1-5.9 18.5-10.8 24.9-14.5 49.6-28.4 59.8-33.5 22.7-11.3 51.7-20.4 72.5-22.6 6-.7 24-.7 27.5-.1 1.4.3 4.8.7 7.5 1.1 25 3.1 58.8 19.3 81.4 39 29.7 26 49.6 61.1 54.8 96.5 1.4 9.9.8 28.3-1.2 38-.2 1.4-.7 3.8-1.1 5.5-2 10.1-9.5 30-15.1 40.3-1.3 2.3-3.5 6.3-4.9 9-4.5 8.2-15.2 24.1-28.4 42.2-25.9 35.6-40.9 61.5-52.9 91.7-3.4 8.6-9.3 26.3-10.6 31.9-.2 1-.9 3.7-1.5 5.9-.5 2.2-1.2 6-1.6 8.5-.3 2.5-.8 4.8-1 5.1-1 1.7-1.9 16.3-1.9 31.9v17.5l74-.1c67.6 0 112.4-.8 115.7-1.9.7-.2 3.1-.6 5.3-.9 11.3-1.5 18.6-6.1 20.8-13.1 2.9-9.1 4-104.6 4.1-330 0-245.6-1.2-325.3-4.9-332.5-.8-1.5-3.5-4.6-6.1-6.9-3.7-3.3-5.5-4.1-8.8-4.3-2.3 0-5.4-.2-7.1-.3-6.6-.5-49-1.6-83.5-2.1-34-.6-411.8-1.3-412.3-.8zm427.8 71.8c12.3 2.4 16.8 3.7 23.7 7.2 12.9 6.5 21 16.6 24.2 30.2 1.6 6.8 1.9 23.2.6 30.2-.4 2.5-1 5.8-1.3 7.5-1.5 9.6-8.1 29.4-12.9 39-10.6 20.8-24.5 34.6-43.5 42.9-16.4 7.2-26.3 8.4-39.8 5.1-15.6-3.8-24.1-11.1-31.9-27-7.2-14.8-8.8-20.5-8.9-32.5-.2-16.6 2.7-39.1 6.2-48.3.6-1.5.7-2.7.4-2.7-.4 0-.2-.5.5-1.2s1.2-1.9 1.2-2.8c0-.9 2.3-6.2 5-11.8 9.9-19.9 27.8-33.6 46.9-35.9 2.6-.3 4.7-.7 4.9-.8.5-.5 21.5.3 24.7.9zm-148.9 42.7c8 1.9 18.6 7.5 23.6 12.3 8.7 8.4 12.7 18.1 12.9 31.2.2 13-4.6 23.8-15.3 34.7-10 10.1-21.7 14.7-37.9 14.7-20.1 0-35.1-10.8-41.9-30.3-2.5-7.1-3-9.7-3.7-18.9-1.6-23.2 12.6-40.9 36-44.7 6.5-1 20-.5 26.3 1zm-111.5 32.4c25.6 6.5 39.6 26.9 36.2 52.5-2.3 17-12.4 29.9-29.6 37.4-34.6 15.2-66.9-6.7-66.9-45.4 0-8.2.2-10.1 1.7-16.5 5.5-22.2 32-34.9 58.6-28zm-108.8 59.1c19.7 4.6 32.3 16.9 36.3 35.4.8 3.4.5 13.8-.5 18.8-3.9 19.9-22.9 37.3-43.3 39.8-8.2 1.1-9.9 1.1-15.8.2-11.7-1.9-25.7-11.8-30.7-21.9-5.6-11.2-7.8-31.8-4.9-44.4 2.6-11 6.6-16.5 15.8-22.1 10.9-6.6 28.9-9 43.1-5.8zm-107.7 75.9c23.8 5.9 37.1 23.2 36 46.9-1 19.5-13.1 34.6-33.9 42.1-36.4 13.3-64.6-10.4-63.6-53.4.3-13.6 1.1-15.6 10-24.2 8.6-8.5 13.7-11.4 21.9-12.7 8.2-1.2 21.8-.6 29.6 1.3z"/></svg>