<svg width="38" height="18" viewBox="0 0 38 18" xmlns="http://www.w3.org/2000/svg">
    <mask id="mask0" mask-type="alpha" maskUnits="userSpaceOnUse" x="10" y="0" width="18" height="18">
        <path fill-rule="evenodd" clip-rule="evenodd" d="M28 16V2C28 0.9 27.1 0 26 0H12C10.9 0 10 0.9 10 2V16C10 17.1 10.9 18 12 18H26C27.1 18 28 17.1 28 16V16ZM15.5 10.5L18 13.51L21.5 9L26 15H12L15.5 10.5V10.5Z" />
    </mask>
    <g mask="url(#mask0)">
        <rect x="10" width="18" height="18" />
    </g>
    <mask id="mask1" mask-type="alpha" maskUnits="userSpaceOnUse" x="0" y="3" width="7" height="12">
        <path fill-rule="evenodd" clip-rule="evenodd" d="M7 13.59L2.67341 9L7 4.41L5.66802 3L0 9L5.66802 15L7 13.59Z" fill="white" />
    </mask>
    <g mask="url(#mask1)">
        <rect y="3" width="7.55735" height="12" />
    </g>
    <mask id="mask2" mask-type="alpha" maskUnits="userSpaceOnUse" x="31" y="3" width="7" height="12">
        <path fill-rule="evenodd" clip-rule="evenodd" d="M31 13.59L35.3266 9L31 4.41L32.332 3L38 9L32.332 15L31 13.59Z" fill="white" />
    </mask>
    <g mask="url(#mask2)">
        <rect x="30.4426" y="2.25" width="7.55735" height="13" />
    </g>
</svg>