<svg xmlns="http://www.w3.org/2000/svg" width="16" height="16" fill="currentColor" class="bi bi-puzzle" viewBox="0 0 16 16">
    <path d="M3.112 3.645A1.5 1.5 0 0 1 4.605 2H7a.5.5 0 0 1 .5.5v.382c0 .696-.497 1.182-.872 1.469a.45.45 0 0 0-.115.118.25.25 0 0 0-.012.069c0 .03.01.05.027.07.16.174.412.282.673.282.26 0 .512-.108.673-.282a.25.25 0 0 0 .027-.07.25.25 0 0 0-.012-.069.45.45 0 0 0-.115-.118C7.497 4.064 7 3.578 7 2.882V2.5A.5.5 0 0 1 7.5 2h2.395a1.5 1.5 0 0 1 1.493 1.645L11.351 4.8a.25.25 0 0 0 .246.3h.882c.696 0 1.182.497 1.469.872a.45.45 0 0 0 .118.115.25.25 0 0 0 .069.012.111.111 0 0 0 .07-.027c.174-.16.282-.412.282-.673 0-.26-.108-.512-.282-.673a.25.25 0 0 0-.07-.027.111.111 0 0 0-.069.012.45.45 0 0 0-.118.115c-.287.375-.773.872-1.469.872h-.382a.5.5 0 0 1-.5-.5V2.605A1.5 1.5 0 0 1 12.355 1.112"/>
    <path d="M4.605 14a1.5 1.5 0 0 1-1.493-1.645L3.249 11.2a.25.25 0 0 0-.246-.3h-.882c-.696 0-1.182-.497-1.469-.872a.45.45 0 0 0-.118-.115.25.25 0 0 0-.069-.012.111.111 0 0 0-.07.027C.151 9.92.043 10.172.043 10.433c0 .26.108.512.282.673a.25.25 0 0 0 .07.027.111.111 0 0 0 .069-.012.45.45 0 0 0 .118-.115c.287-.375.773-.872 1.469-.872h.382a.5.5 0 0 1 .5.5v2.395A1.5 1.5 0 0 1 3.645 14z"/>
</svg>
