<?xml version="1.0" standalone="no"?>
<!DOCTYPE svg PUBLIC "-//W3C//DTD SVG 20010904//EN"
 "http://www.w3.org/TR/2001/REC-SVG-20010904/DTD/svg10.dtd">
<svg version="1.0" xmlns="http://www.w3.org/2000/svg"
 width="1000.000000pt" height="1000.000000pt" viewBox="0 0 1000.000000 1000.000000"
 preserveAspectRatio="xMidYMid meet">
<metadata>
Created by potrace 1.13, written by Peter Selinger 2001-2015
</metadata>
<g transform="translate(0.000000,1000.000000) scale(0.100000,-0.100000)"
fill="#000000" stroke="none">
<path d="M2576 9973 c-66 -335 -74 -843 -20 -1207 17 -115 37 -200 105 -451
155 -567 313 -1035 423 -1253 l44 -90 -50 -53 c-140 -151 -616 -823 -860
-1214 -215 -345 -341 -569 -494 -875 -267 -536 -411 -939 -486 -1362 -18 -101
-22 -163 -22 -343 -1 -240 11 -335 73 -584 152 -607 485 -1120 999 -1539 448
-365 923 -578 1437 -643 127 -17 491 -16 615 0 306 40 681 116 922 187 12 4
20 -9 36 -58 11 -35 50 -157 87 -271 l66 -208 27 5 c15 3 53 8 85 12 31 3 57
10 57 14 0 3 -9 33 -19 66 -39 120 -163 519 -165 527 0 5 58 35 131 66 291
128 511 276 711 480 288 292 463 638 533 1051 20 124 23 432 5 590 -68 587
-290 1062 -676 1450 -501 504 -1168 663 -1949 466 -57 -15 -105 -25 -107 -23
-2 1 -66 194 -143 427 -279 849 -264 800 -249 818 8 9 53 61 101 115 503 571
812 1294 914 2137 24 205 24 678 -1 880 -31 259 -88 522 -168 778 l-42 132
-153 0 c-84 0 -153 -3 -153 -7 0 -5 14 -51 31 -103 83 -261 103 -397 96 -650
-3 -104 -12 -225 -21 -275 -58 -319 -170 -624 -355 -966 -120 -222 -265 -423
-479 -665 l-187 -212 -18 40 c-54 125 -224 765 -284 1073 -83 428 19 1132 254
1753 4 9 -64 12 -320 12 l-325 0 -6 -27z m1224 -4977 c61 -186 108 -342 103
-346 -4 -4 -46 -24 -93 -45 -404 -175 -742 -519 -930 -944 -189 -432 -209
-925 -55 -1378 82 -237 191 -410 379 -599 195 -194 364 -311 651 -450 285
-137 546 -214 731 -214 47 0 51 7 38 58 -5 18 -13 22 -49 22 -121 0 -320 61
-508 155 -435 218 -718 459 -846 720 -72 146 -92 248 -92 464 0 563 292 1075
741 1300 99 49 265 110 275 100 6 -6 51 -136 180 -519 148 -436 260 -766 415
-1220 83 -245 193 -569 245 -720 51 -151 114 -335 139 -409 25 -74 45 -135 44
-136 -33 -27 -293 -131 -417 -166 -284 -80 -659 -93 -945 -33 -309 64 -613
208 -912 429 -242 180 -450 381 -580 560 -140 195 -242 464 -289 764 -19 122
-21 394 -5 526 68 548 325 1162 768 1835 226 345 573 820 698 959 l58 64 72
-219 c40 -121 123 -371 184 -558z m1185 -1076 c410 -59 809 -306 1057 -655
141 -199 244 -470 279 -730 14 -111 6 -383 -15 -475 -107 -472 -407 -845 -850
-1056 -65 -30 -120 -54 -122 -51 -2 2 -44 123 -93 268 -49 145 -185 545 -301
889 -116 344 -262 776 -325 960 -62 184 -147 436 -189 559 -42 123 -76 229
-76 235 0 13 75 32 195 51 98 16 345 18 440 5z"/>
</g>
</svg>
