<?xml version="1.0" standalone="no"?>
<!DOCTYPE svg PUBLIC "-//W3C//DTD SVG 20010904//EN"
 "http://www.w3.org/TR/2001/REC-SVG-20010904/DTD/svg10.dtd">
<svg version="1.0" xmlns="http://www.w3.org/2000/svg"
 width="700.000000pt" height="700.000000pt" viewBox="0 0 700.000000 700.000000"
 preserveAspectRatio="xMidYMid meet">
<metadata>
Created by potrace 1.11, written by Peter Selinger 2001-2013
</metadata>
<g transform="translate(0.000000,700.000000) scale(0.100000,-0.100000)"
fill="#000000" stroke="none">
<path d="M1737 6964 c-1 -1 -233 -5 -516 -8 -794 -10 -997 -18 -1040 -40 -30
-16 -83 -71 -100 -103 -33 -64 -45 -970 -45 -3323 0 -2425 12 -3240 48 -3308
17 -32 58 -77 89 -96 54 -35 344 -47 1127 -46 603 0 659 3 678 35 4 8 -13 97
-40 207 -26 106 -50 200 -51 208 -12 52 -20 77 -27 95 -5 11 -11 33 -15 50 -9
40 -90 264 -122 334 -75 168 -137 285 -238 446 -144 231 -237 461 -281 695
-13 73 -12 334 1 413 67 376 288 689 669 946 55 37 325 207 446 281 82 49 402
242 427 256 18 11 101 59 185 108 249 145 496 284 598 335 227 113 517 204
725 226 60 7 240 7 275 1 14 -3 48 -7 75 -11 250 -31 588 -193 814 -390 297
-260 496 -611 548 -965 14 -99 8 -283 -12 -380 -2 -14 -7 -38 -11 -55 -20
-101 -95 -300 -151 -403 -13 -23 -35 -63 -49 -90 -45 -82 -152 -241 -284 -422
-259 -356 -409 -615 -529 -917 -34 -86 -93 -263 -106 -319 -2 -10 -9 -37 -15
-59 -5 -22 -12 -60 -16 -85 -3 -25 -8 -48 -10 -51 -10 -17 -19 -163 -19 -319
l0 -175 740 1 c676 0 1124 8 1157 19 7 2 31 6 53 9 113 15 186 61 208 131 29
91 40 1046 41 3300 0 2456 -12 3253 -49 3325 -8 15 -35 46 -61 69 -37 33 -55
41 -88 43 -23 0 -54 2 -71 3 -66 5 -490 16 -835 21 -340 6 -4118 13 -4123 8z
m4278 -718 c123 -24 168 -37 237 -72 129 -65 210 -166 242 -302 16 -68 19
-232 6 -302 -4 -25 -10 -58 -13 -75 -15 -96 -81 -294 -129 -390 -106 -208
-245 -346 -435 -429 -164 -72 -263 -84 -398 -51 -156 38 -241 111 -319 270
-72 148 -88 205 -89 325 -2 166 27 391 62 483 6 15 7 27 4 27 -4 0 -2 5 5 12
7 7 12 19 12 28 0 9 23 62 50 118 99 199 278 336 469 359 26 3 47 7 49 8 5 5
215 -3 247 -9z m-1489 -427 c80 -19 186 -75 236 -123 87 -84 127 -181 129
-312 2 -130 -46 -238 -153 -347 -100 -101 -217 -147 -379 -147 -201 0 -351
108 -419 303 -25 71 -30 97 -37 189 -16 232 126 409 360 447 65 10 200 5 263
-10z m-1115 -324 c256 -65 396 -269 362 -525 -23 -170 -124 -299 -296 -374
-346 -152 -669 67 -669 454 0 82 2 101 17 165 55 222 320 349 586 280z m-1088
-591 c197 -46 323 -169 363 -354 8 -34 5 -138 -5 -188 -39 -199 -229 -373
-433 -398 -82 -11 -99 -11 -158 -2 -117 19 -257 118 -307 219 -56 112 -78 318
-49 444 26 110 66 165 158 221 109 66 289 90 431 58z m-1077 -759 c238 -59
371 -232 360 -469 -10 -195 -131 -346 -339 -421 -364 -133 -646 104 -636 534
3 136 11 156 100 242 86 85 137 114 219 127 82 12 218 6 296 -13z"/>
</g>
</svg>
